<mxfile host="app.diagrams.net" modified="2021-10-28T06:10:26.741Z" agent="5.0 (Macintosh; Intel Mac OS X 10_15_7) AppleWebKit/537.36 (KHTML, like Gecko) Chrome/95.0.4638.54 Safari/537.36" etag="Mq8KiGGvm5Azmnknzzf9" version="14.7.2" type="github">
  <diagram id="EyVjORqOvhnCOhiFApd3" name="Page-1">
    <mxGraphModel dx="2063" dy="1161" grid="1" gridSize="10" guides="1" tooltips="1" connect="1" arrows="1" fold="1" page="1" pageScale="1" pageWidth="850" pageHeight="1100" math="0" shadow="0">
      <root>
        <mxCell id="0" />
        <mxCell id="1" parent="0" />
        <mxCell id="97eH8R8YSjzmkIWTGOqc-1" value="VPC" style="outlineConnect=0;gradientColor=none;html=1;whiteSpace=wrap;fontSize=12;fontStyle=0;shape=mxgraph.aws4.group;grIcon=mxgraph.aws4.group_vpc;strokeColor=#B6BABF;fillColor=none;verticalAlign=top;align=left;spacingLeft=30;fontColor=#B6BABF;dashed=0;" vertex="1" parent="1">
          <mxGeometry x="40" y="40" width="440" height="280" as="geometry" />
        </mxCell>
        <mxCell id="97eH8R8YSjzmkIWTGOqc-10" style="edgeStyle=orthogonalEdgeStyle;rounded=0;orthogonalLoop=1;jettySize=auto;html=1;exitX=0.5;exitY=1;exitDx=0;exitDy=0;" edge="1" parent="1" source="97eH8R8YSjzmkIWTGOqc-4">
          <mxGeometry relative="1" as="geometry">
            <mxPoint x="160" y="200" as="targetPoint" />
          </mxGeometry>
        </mxCell>
        <mxCell id="97eH8R8YSjzmkIWTGOqc-11" style="edgeStyle=orthogonalEdgeStyle;rounded=0;orthogonalLoop=1;jettySize=auto;html=1;exitX=0.5;exitY=1;exitDx=0;exitDy=0;" edge="1" parent="1" source="97eH8R8YSjzmkIWTGOqc-4" target="97eH8R8YSjzmkIWTGOqc-5">
          <mxGeometry relative="1" as="geometry" />
        </mxCell>
        <mxCell id="97eH8R8YSjzmkIWTGOqc-13" style="edgeStyle=orthogonalEdgeStyle;rounded=0;orthogonalLoop=1;jettySize=auto;html=1;exitX=0.5;exitY=1;exitDx=0;exitDy=0;startArrow=classic;startFill=1;" edge="1" parent="1" source="97eH8R8YSjzmkIWTGOqc-4" target="97eH8R8YSjzmkIWTGOqc-6">
          <mxGeometry relative="1" as="geometry" />
        </mxCell>
        <mxCell id="97eH8R8YSjzmkIWTGOqc-4" value="" style="image;html=1;image=img/lib/clip_art/computers/Server_Rack_128x128.png" vertex="1" parent="1">
          <mxGeometry x="240" y="80" width="80" height="80" as="geometry" />
        </mxCell>
        <mxCell id="97eH8R8YSjzmkIWTGOqc-5" value="" style="points=[];aspect=fixed;html=1;align=center;shadow=0;dashed=0;image;image=img/lib/allied_telesis/wireless/Access_Point_Indoor.svg;" vertex="1" parent="1">
          <mxGeometry x="261.7" y="210" width="36.6" height="54.6" as="geometry" />
        </mxCell>
        <mxCell id="97eH8R8YSjzmkIWTGOqc-6" value="" style="points=[];aspect=fixed;html=1;align=center;shadow=0;dashed=0;image;image=img/lib/allied_telesis/wireless/Access_Point_Outdoor.svg;" vertex="1" parent="1">
          <mxGeometry x="370" y="200" width="25.8" height="99.6" as="geometry" />
        </mxCell>
        <mxCell id="97eH8R8YSjzmkIWTGOqc-9" style="edgeStyle=orthogonalEdgeStyle;rounded=0;orthogonalLoop=1;jettySize=auto;html=1;startArrow=classic;startFill=1;" edge="1" parent="1" source="97eH8R8YSjzmkIWTGOqc-7">
          <mxGeometry relative="1" as="geometry">
            <mxPoint x="250" y="120" as="targetPoint" />
          </mxGeometry>
        </mxCell>
        <mxCell id="97eH8R8YSjzmkIWTGOqc-7" value="" style="aspect=fixed;perimeter=ellipsePerimeter;html=1;align=center;shadow=0;dashed=0;spacingTop=3;image;image=img/lib/active_directory/internet_globe.svg;" vertex="1" parent="1">
          <mxGeometry x="80" y="95" width="50" height="50" as="geometry" />
        </mxCell>
        <mxCell id="97eH8R8YSjzmkIWTGOqc-14" value="" style="points=[];aspect=fixed;html=1;align=center;shadow=0;dashed=0;image;image=img/lib/allied_telesis/wireless/Access_Point_Indoor.svg;" vertex="1" parent="1">
          <mxGeometry x="140" y="200" width="36.6" height="54.6" as="geometry" />
        </mxCell>
      </root>
    </mxGraphModel>
  </diagram>
</mxfile>
